HIERARCHY
ROOT hip
{
  OFFSET 0.00112043 5.09927 -9.65472
  CHANNELS 6 Xposition Yposition Zposition Zrotation Xrotation Yrotation
  JOINT abdomen
  {
    OFFSET 0 -1.186 -1.5018
    CHANNELS 3 Zrotation Xrotation Yrotation
    JOINT abdomen2
    {
      OFFSET 0 9.964 0.2134
      CHANNELS 3 Zrotation Xrotation Yrotation
      JOINT chest
      {
        OFFSET 0 13.134 -3.2573
        CHANNELS 3 Zrotation Xrotation Yrotation
        JOINT neck
        {
          OFFSET 0 20.686 -1.6905
          CHANNELS 3 Zrotation Xrotation Yrotation
          JOINT head
          {
            OFFSET 0 7.238 -0.1237
            CHANNELS 3 Zrotation Xrotation Yrotation
            End Site
            {
              OFFSET 0 0 0
            }
          }
        }
        JOINT lCollar
        {
          OFFSET 1.7069 20.075 5.0056
          CHANNELS 3 Zrotation Xrotation Yrotation
          JOINT lShldr
          {
            OFFSET 13.6458 -0.047 -4.849
            CHANNELS 3 Zrotation Xrotation Yrotation
            JOINT lForeArm
            {
              OFFSET 28.3255 -0.9759 2.2888
              CHANNELS 3 Zrotation Xrotation Yrotation
              JOINT lHand
              {
                OFFSET 22.1583 -0.53 10.8316
                CHANNELS 3 Zrotation Xrotation Yrotation
                JOINT lThumb1
                {
                  OFFSET 0.786 0.112 2.5817
                  CHANNELS 3 Zrotation Xrotation Yrotation
                  JOINT lThumb2
                  {
                    OFFSET 0.3601 -0.878 4.2331
                    CHANNELS 3 Zrotation Xrotation Yrotation
                    JOINT lThumb2_End
                    {
                      OFFSET 1.8127 -1.216 2.2227
                      CHANNELS 3 Zrotation Xrotation Yrotation
                      End Site
                      {
                        OFFSET 0.0181 -0.0122 0.0222
                      }
                    }
                  }
                }
                JOINT lCarpal1
                {
                  OFFSET 0.9571 1.114 1.7695
                  CHANNELS 3 Zrotation Xrotation Yrotation
                  JOINT lIndex1
                  {
                    OFFSET 4.1246 0.487 4.1451
                    CHANNELS 3 Zrotation Xrotation Yrotation
                    JOINT lIndex2
                    {
                      OFFSET 3.4052 -1.454 2.7682
                      CHANNELS 3 Zrotation Xrotation Yrotation
                      JOINT lIndex2_End
                      {
                        OFFSET 1.4531 -1.795 1.2713
                        CHANNELS 3 Zrotation Xrotation Yrotation
                        End Site
                        {
                          OFFSET 0.0145 -0.0179 0.0127
                        }
                      }
                    }
                  }
                  JOINT lMid1
                  {
                    OFFSET 5.6954 0.21 2.1184
                    CHANNELS 3 Zrotation Xrotation Yrotation
                    JOINT lMid2
                    {
                      OFFSET 3.9766 -1.54 2.3863
                      CHANNELS 3 Zrotation Xrotation Yrotation
                      JOINT lMid2_End
                      {
                        OFFSET 1.4042 -1.926 1.125
                        CHANNELS 3 Zrotation Xrotation Yrotation
                        End Site
                        {
                          OFFSET 0.014 -0.0193 0.0113
                        }
                      }
                    }
                  }
                }
                JOINT lCarpal2
                {
                  OFFSET 2.0956 0.66 -0.3894
                  CHANNELS 3 Zrotation Xrotation Yrotation
                  JOINT lRing1
                  {
                    OFFSET 5.0395 -0.09 2.4971
                    CHANNELS 3 Zrotation Xrotation Yrotation
                    JOINT lRing2
                    {
                      OFFSET 3.7921 -1.552 1.4806
                      CHANNELS 3 Zrotation Xrotation Yrotation
                      JOINT lRing2_End
                      {
                        OFFSET 1.4655 -1.808 0.9609
                        CHANNELS 3 Zrotation Xrotation Yrotation
                        End Site
                        {
                          OFFSET 0.0147 -0.0181 0.0096
                        }
                      }
                    }
                  }
                  JOINT lPinky1
                  {
                    OFFSET 4.9141 -1.269 0.3591
                    CHANNELS 3 Zrotation Xrotation Yrotation
                    JOINT lPinky2
                    {
                      OFFSET 3.1477 -1.685 0.8462
                      CHANNELS 3 Zrotation Xrotation Yrotation
                      JOINT lPinky2_End
                      {
                        OFFSET 0.8055 -1.585 0.7955
                        CHANNELS 3 Zrotation Xrotation Yrotation
                        End Site
                        {
                          OFFSET 0.0081 -0.0158 0.008
                        }
                      }
                    }
                  }
                }
              }
            }
          }
        }
        JOINT rCollar
        {
          OFFSET -1.7069 20.075 5.0056
          CHANNELS 3 Zrotation Xrotation Yrotation
          JOINT rShldr
          {
            OFFSET -13.6458 -0.047 -4.849
            CHANNELS 3 Zrotation Xrotation Yrotation
            JOINT rForeArm
            {
              OFFSET -28.3255 -0.9759 2.2888
              CHANNELS 3 Zrotation Xrotation Yrotation
              JOINT rHand
              {
                OFFSET -22.1583 -0.53 10.8316
                CHANNELS 3 Zrotation Xrotation Yrotation
                JOINT rThumb1
                {
                  OFFSET -0.786 0.112 2.5817
                  CHANNELS 3 Zrotation Xrotation Yrotation
                  JOINT rThumb2
                  {
                    OFFSET -0.3601 -0.878 4.2331
                    CHANNELS 3 Zrotation Xrotation Yrotation
                    JOINT rThumb2_End
                    {
                      OFFSET -1.8127 -1.216 2.2227
                      CHANNELS 3 Zrotation Xrotation Yrotation
                      End Site
                      {
                        OFFSET -0.0181 -0.0122 0.0222
                      }
                    }
                  }
                }
                JOINT rCarpal1
                {
                  OFFSET -0.9571 1.114 1.7695
                  CHANNELS 3 Zrotation Xrotation Yrotation
                  JOINT rIndex1
                  {
                    OFFSET -4.1246 0.487 4.1451
                    CHANNELS 3 Zrotation Xrotation Yrotation
                    JOINT rIndex2
                    {
                      OFFSET -3.4052 -1.454 2.7682
                      CHANNELS 3 Zrotation Xrotation Yrotation
                      JOINT rIndex2_End
                      {
                        OFFSET -1.4531 -1.795 1.2713
                        CHANNELS 3 Zrotation Xrotation Yrotation
                        End Site
                        {
                          OFFSET -0.0145 -0.018 0.0127
                        }
                      }
                    }
                  }
                  JOINT rMid1
                  {
                    OFFSET -5.6954 0.21 2.1184
                    CHANNELS 3 Zrotation Xrotation Yrotation
                    JOINT rMid2
                    {
                      OFFSET -3.9766 -1.54 2.3863
                      CHANNELS 3 Zrotation Xrotation Yrotation
                      JOINT rMid2_End
                      {
                        OFFSET -1.4042 -1.926 1.125
                        CHANNELS 3 Zrotation Xrotation Yrotation
                        End Site
                        {
                          OFFSET -0.014 -0.0193 0.0113
                        }
                      }
                    }
                  }
                }
                JOINT rCarpal2
                {
                  OFFSET -2.0956 0.66 -0.3894
                  CHANNELS 3 Zrotation Xrotation Yrotation
                  JOINT rRing1
                  {
                    OFFSET -5.0395 -0.09 2.4971
                    CHANNELS 3 Zrotation Xrotation Yrotation
                    JOINT rRing2
                    {
                      OFFSET -3.7921 -1.552 1.4806
                      CHANNELS 3 Zrotation Xrotation Yrotation
                      JOINT rRing2_End
                      {
                        OFFSET -1.4655 -1.808 0.9609
                        CHANNELS 3 Zrotation Xrotation Yrotation
                        End Site
                        {
                          OFFSET -0.0147 -0.0181 0.0096
                        }
                      }
                    }
                  }
                  JOINT rPinky1
                  {
                    OFFSET -4.9141 -1.269 0.3592
                    CHANNELS 3 Zrotation Xrotation Yrotation
                    JOINT rPinky2
                    {
                      OFFSET -3.1477 -1.685 0.8462
                      CHANNELS 3 Zrotation Xrotation Yrotation
                      JOINT rPinky2_End
                      {
                        OFFSET -0.8055 -1.585 0.7955
                        CHANNELS 3 Zrotation Xrotation Yrotation
                        End Site
                        {
                          OFFSET -0.0081 -0.0158 0.008
                        }
                      }
                    }
                  }
                }
              }
            }
          }
        }
      }
    }
  }
  JOINT lThigh
  {
    OFFSET 8.367 -8.2066 0.5982
    CHANNELS 3 Zrotation Xrotation Yrotation
    JOINT lShin
    {
      OFFSET 2.1923 -43.463 -0.4932
      CHANNELS 3 Zrotation Xrotation Yrotation
      JOINT lFoot
      {
        OFFSET 0.7333 -45.8593 -2.6451
        CHANNELS 3 Zrotation Xrotation Yrotation
        End Site
        {
          OFFSET 2.6618 -4.2699 12.3931
        }
      }
    }
  }
  JOINT rThigh
  {
    OFFSET -8.367 -8.2066 0.5982
    CHANNELS 3 Zrotation Xrotation Yrotation
    JOINT rShin
    {
      OFFSET -2.1923 -43.463 -0.4931
      CHANNELS 3 Zrotation Xrotation Yrotation
      JOINT rFoot
      {
        OFFSET -0.7333 -45.8593 -2.6451
        CHANNELS 3 Zrotation Xrotation Yrotation
        End Site
        {
          OFFSET -2.6618 -4.2699 12.3931
        }
      }
    }
  }
}
MOTION
Frames:	6
Frame Time:	0.0333333
42.1087 -1.83909 71.4657 0 76.1488 -0 -0.464451 2.9852 -0.194169 -0.920633 5.97185 -0.364806 -0.920634 5.97186 -0.364806 -0.0021504 -3.23143 -44.0018 -2.47171 -16.8607 -31.4955 -3.72046 8.86721 -6.69261 -31.4605 -46.0783 -1.98903 32.8616 -20.3772 -25.057 8.10501 -39.8278 -23.0892 3.97569e-016 -3.97569e-016 -0 1.3418e-015 9.93923e-017 3.18055e-015 8.44835e-016 2.98177e-016 3.18055e-015 0 9.93923e-017 -0 3.97569e-016 -1.49089e-016 3.18055e-015 5.46658e-016 3.97569e-016 3.18055e-015 2.98177e-016 -2.48481e-016 3.18055e-015 3.97569e-016 -1.49089e-016 3.18055e-015 5.46658e-016 3.97569e-016 3.18055e-015 2.98177e-016 -2.48481e-016 3.18055e-015 0 9.93923e-017 -0 3.97569e-016 -1.49089e-016 3.18055e-015 5.46658e-016 3.97569e-016 3.18055e-015 2.98177e-016 -2.48481e-016 3.18055e-015 3.97569e-016 -1.49089e-016 3.18055e-015 5.46658e-016 3.97569e-016 3.18055e-015 2.98177e-016 -2.48481e-016 3.18055e-015 51.1593 -13.974 4.21395 35.2965 -38.5109 4.34579 -31.6649 -20.2462 16.7418 -0.755548 -17.6687 30.0437 2.34097e-007 -4.00055e-007 -9.19356e-007 5.39505e-008 1.57745e-008 -8.46417e-007 -2.85797e-007 3.9802e-007 -9.30556e-007 -7.95139e-016 1.59028e-015 -1.59028e-015 2.34097e-007 -4.00055e-007 -9.19356e-007 5.39505e-008 1.57745e-008 -8.46417e-007 -2.85797e-007 3.9802e-007 -9.30557e-007 2.34097e-007 -4.00055e-007 -9.19356e-007 5.39505e-008 1.57745e-008 -8.46417e-007 -2.85797e-007 3.9802e-007 -9.30557e-007 -7.95139e-016 1.59028e-015 -1.59028e-015 2.34097e-007 -4.00055e-007 -9.19356e-007 5.39505e-008 1.57745e-008 -8.46417e-007 -2.85797e-007 3.9802e-007 -9.30557e-007 2.34097e-007 -4.00055e-007 -9.19356e-007 5.39505e-008 1.57745e-008 -8.46417e-007 -2.85797e-007 3.9802e-007 -9.30557e-007 4.12985 13.3951 47.3431 -4.67868 -2.15254 21.6706 10.8104 47.0478 -8.00297 -5.76162 10.1083 -52.8352 6.55287 9.18032 -22.8717 -22.2767 49.5785 15.6666 
42.1118 -1.85023 71.4643 0 76.2989 -0 -0.456112 2.861 -0.194664 -0.904169 5.72343 -0.367173 -0.90417 5.72348 -0.367172 -0.00221264 -2.95577 -44.0018 -2.3404 -16.7863 -31.2042 -3.94438 8.42782 -6.61883 -31.4605 -46.0783 -1.98904 32.8559 -20.3715 -25.044 7.49078 -39.1457 -23.6843 2.48481e-016 -1.49089e-016 -0 -1.98785e-016 -5.96354e-016 -0 -7.70291e-016 -1.98785e-016 3.18055e-015 2.48481e-016 -1.98785e-016 -0 5.71506e-016 -1.49089e-016 9.54166e-015 -2.73329e-016 -4.96962e-016 -3.18055e-015 -5.46658e-016 -9.93923e-017 -0 5.71506e-016 -1.49089e-016 9.54166e-015 -2.73329e-016 -4.96962e-016 -3.18055e-015 -5.46658e-016 -9.93923e-017 -0 2.48481e-016 -1.98785e-016 -0 5.71506e-016 -1.49089e-016 9.54166e-015 -2.73329e-016 -4.96962e-016 -3.18055e-015 -5.46658e-016 -9.93923e-017 -0 5.71506e-016 -1.49089e-016 9.54166e-015 -2.73329e-016 -4.96962e-016 -3.18055e-015 -5.46658e-016 -9.93923e-017 -0 51.0719 -13.8088 3.46439 35.7551 -38.6331 4.90392 -31.7913 -20.3962 16.8246 -0.549647 -17.1152 30.1821 8.82781e-032 1.59028e-015 -3.18055e-015 -1.98785e-016 1.59028e-015 -0 -1.98785e-016 1.59028e-015 -0 -1.98785e-016 0 -1.59028e-015 -5.96354e-016 0 6.36111e-015 3.97569e-016 0 -0 1.98785e-016 0 -1.59028e-015 -5.96354e-016 0 6.36111e-015 3.97569e-016 0 -0 1.98785e-016 0 -1.59028e-015 -1.98785e-016 0 -1.59028e-015 -5.96354e-016 0 6.36111e-015 3.97569e-016 0 -0 1.98785e-016 0 -1.59028e-015 -5.96354e-016 0 6.36111e-015 3.97569e-016 0 -0 1.98785e-016 0 -1.59028e-015 4.06878 13.2339 47.2813 -4.67872 -2.14643 21.6702 10.8077 47.0446 -8.00136 -5.74133 9.85791 -52.3268 6.55349 9.19568 -22.8756 -21.5989 49.7334 14.8657 
42.1148 -1.86138 71.463 0 76.4489 -0 -0.447751 2.7369 -0.195233 -0.887674 5.47525 -0.369653 -0.887674 5.47524 -0.369654 -0.00227561 -2.68012 -44.0018 -2.20954 -16.7113 -30.9132 -4.16745 7.98806 -6.54686 -31.4605 -46.0783 -1.98903 32.8501 -20.3657 -25.031 6.89164 -38.459 -24.2643 -1.46604e-015 6.70898e-016 2.22639e-014 -1.16786e-015 3.47873e-016 1.90833e-014 -9.44227e-016 6.95746e-016 2.22639e-014 -1.04362e-015 4.72114e-016 1.27222e-014 1.98785e-016 -1.73937e-016 2.54444e-014 2.98177e-016 8.44835e-016 2.22639e-014 9.93923e-017 3.97569e-016 2.22639e-014 1.98785e-016 -1.73937e-016 2.54444e-014 2.98177e-016 8.44835e-016 2.22639e-014 9.93923e-017 3.97569e-016 2.22639e-014 -1.04362e-015 4.72114e-016 1.27222e-014 1.98785e-016 -1.73937e-016 2.54444e-014 2.98177e-016 8.44835e-016 2.22639e-014 9.93923e-017 3.97569e-016 2.22639e-014 1.98785e-016 -1.73937e-016 2.54444e-014 2.98177e-016 8.44835e-016 2.22639e-014 9.93923e-017 3.97569e-016 2.22639e-014 50.9869 -13.6426 2.71586 36.2159 -38.7518 5.46419 -31.9175 -20.5463 16.907 -0.345761 -16.5613 30.318 1.98785e-016 7.95139e-016 -0 1.98785e-016 7.95139e-016 -0 5.96354e-016 7.95139e-016 -1.59028e-015 2.20695e-032 -7.95139e-016 1.59028e-015 -3.97569e-016 -1.59028e-015 7.95139e-015 -3.97569e-016 7.95139e-016 -0 7.95139e-016 -7.95139e-016 -1.59028e-015 -3.97569e-016 -1.59028e-015 7.95139e-015 -3.97569e-016 7.95139e-016 -0 7.95139e-016 -7.95139e-016 -1.59028e-015 2.20695e-032 -7.95139e-016 1.59028e-015 -3.97569e-016 -1.59028e-015 7.95139e-015 -3.97569e-016 7.95139e-016 -0 7.95139e-016 -7.95139e-016 -1.59028e-015 -3.97569e-016 -1.59028e-015 7.95139e-015 -3.97569e-016 7.95139e-016 -0 7.95139e-016 -7.95139e-016 -1.59028e-015 4.00168 13.0782 47.2205 -4.6787 -2.15575 21.6701 10.8097 47.0483 -8.00269 -5.71921 9.60745 -51.8188 6.55419 9.21188 -22.8792 -20.9149 49.882 14.059 
42.1178 -1.87252 71.4615 0 76.599 -0 -0.439364 2.61289 -0.195882 -0.871134 5.22719 -0.372259 -0.871135 5.2272 -0.372258 -0.00242693 -2.40497 -44.0018 -2.07913 -16.6356 -30.6224 -4.38972 7.54817 -6.47672 -31.4606 -46.0783 -1.98905 32.8444 -20.3599 -25.0179 6.30715 -37.7678 -24.8296 -3.85145e-016 7.82715e-016 1.27222e-014 -1.06847e-015 1.04362e-015 6.36111e-015 -1.35422e-015 0 -0 4.09993e-016 4.96962e-016 1.27222e-014 -3.72721e-016 2.36057e-016 1.59028e-014 -7.57867e-016 -3.72721e-016 -0 -7.82715e-016 2.98177e-016 -0 -3.72721e-016 2.36057e-016 1.59028e-014 -7.57867e-016 -3.72721e-016 -0 -7.82715e-016 2.98177e-016 -0 4.09993e-016 4.96962e-016 1.27222e-014 -3.72721e-016 2.36057e-016 1.59028e-014 -7.57867e-016 -3.72721e-016 -0 -7.82715e-016 2.98177e-016 -0 -3.72721e-016 2.36057e-016 1.59028e-014 -7.57867e-016 -3.72721e-016 -0 -7.82715e-016 2.98177e-016 -0 50.9042 -13.4754 1.96821 36.679 -38.867 6.02654 -32.0437 -20.6966 16.9892 -0.143856 -16.007 30.4514 -5.96354e-016 -7.95139e-016 1.59028e-015 -7.95139e-016 0 -0 -7.95139e-016 -7.95139e-016 3.18055e-015 -3.97569e-016 0 -0 -9.93923e-016 0 6.36111e-015 -7.95139e-016 0 1.59028e-015 -7.95139e-016 -7.95139e-016 1.59028e-015 -9.93923e-016 0 6.36111e-015 -7.95139e-016 0 1.59028e-015 -7.95139e-016 -7.95139e-016 1.59028e-015 -3.97569e-016 0 -0 -9.93923e-016 0 6.36111e-015 -7.95139e-016 0 1.59028e-015 -7.95139e-016 -7.95139e-016 1.59028e-015 -9.93923e-016 0 6.36111e-015 -7.95139e-016 0 1.59028e-015 -7.95139e-016 -7.95139e-016 1.59028e-015 3.93738 12.9199 47.1589 -4.67872 -2.15771 21.6698 10.8094 47.0487 -8.00256 -5.69505 9.35704 -51.3111 6.55495 9.22852 -22.8826 -20.2253 50.0243 13.2467 
42.1207 -1.88367 71.4601 0 76.749 -0 -0.430966 2.48904 -0.196578 -0.854586 4.97952 -0.374922 -0.854585 4.9795 -0.374922 -0.00237495 -2.12974 -44.0017 -1.94919 -16.5593 -30.332 -4.61117 7.10798 -6.40837 -31.4605 -46.0783 -1.98904 32.8387 -20.3542 -25.0049 5.73686 -37.0725 -25.3805 1.36664e-016 -1.3154e-015 -6.36111e-015 6.99667e-008 -2.01503e-007 7.27616e-009 6.63133e-016 -1.84808e-016 3.18055e-015 -2.60905e-016 -9.13167e-016 -6.36111e-015 1.3977e-016 -1.97542e-015 -6.36111e-015 6.99667e-008 -2.01503e-007 7.27616e-009 5.12492e-016 -2.34504e-016 3.18055e-015 1.3977e-016 -1.97542e-015 -6.36111e-015 6.99667e-008 -2.01503e-007 7.27616e-009 5.12492e-016 -2.34504e-016 3.18055e-015 -2.60905e-016 -9.13167e-016 -6.36111e-015 1.3977e-016 -1.97542e-015 -6.36111e-015 6.99667e-008 -2.01503e-007 7.27616e-009 5.12492e-016 -2.34504e-016 3.18055e-015 1.3977e-016 -1.97542e-015 -6.36111e-015 6.99667e-008 -2.01503e-007 7.27616e-009 5.12492e-016 -2.34504e-016 3.18055e-015 50.8239 -13.3072 1.2217 37.1441 -38.9786 6.59091 -32.1697 -20.847 17.0711 0.0561204 -15.4523 30.5824 1.98785e-016 0 -3.18055e-015 3.97569e-016 1.59028e-015 -4.77083e-015 1.98785e-016 1.59028e-015 -4.77083e-015 -1.98785e-016 0 -1.59028e-015 -1.98785e-016 3.97569e-015 -0 3.97569e-016 1.59028e-015 -4.77083e-015 9.93923e-016 -7.95139e-016 -1.59028e-015 -1.98785e-016 3.97569e-015 -0 3.97569e-016 1.59028e-015 -4.77083e-015 9.93923e-016 -7.95139e-016 -1.59028e-015 -1.98785e-016 0 -1.59028e-015 -1.98785e-016 3.97569e-015 -0 3.97569e-016 1.59028e-015 -4.77083e-015 9.93923e-016 -7.95139e-016 -1.59028e-015 -1.98785e-016 3.97569e-015 -0 3.97569e-016 1.59028e-015 -4.77083e-015 9.93923e-016 -7.95139e-016 -1.59028e-015 3.87543 12.7595 47.0968 -4.67876 -2.15347 21.6694 10.8072 47.0466 -8.00127 -5.66901 9.10663 -50.8038 6.55577 9.24593 -22.8856 -19.53 50.1601 12.429 
42.1235 -1.89482 71.4586 0 76.8991 -0 -0.422549 2.36538 -0.197316 -0.838009 4.7321 -0.377634 -0.838009 4.7321 -0.377634 -0.00246165 -1.85444 -44.0018 -1.81971 -16.4824 -30.042 -4.83188 6.66776 -6.34181 -31.4605 -46.0783 -1.98903 32.8329 -20.3484 -24.9919 5.18037 -36.3733 -25.9175 -1.1368e-015 -1.01877e-015 6.36111e-015 -2.50015e-007 1.59748e-007 4.20932e-006 4.38029e-007 3.89543e-008 8.11043e-009 -3.41661e-016 3.85145e-016 6.36111e-015 7.45443e-017 -1.2424e-015 -0 -2.50015e-007 1.59748e-007 4.20932e-006 4.38029e-007 3.89543e-008 8.11042e-009 7.45443e-017 -1.2424e-015 -0 -2.50015e-007 1.59748e-007 4.20932e-006 4.38029e-007 3.89543e-008 8.11042e-009 -3.41661e-016 3.85145e-016 6.36111e-015 7.45443e-017 -1.2424e-015 -0 -2.50015e-007 1.59748e-007 4.20932e-006 4.38029e-007 3.89543e-008 8.11042e-009 7.45443e-017 -1.2424e-015 -0 -2.50015e-007 1.59748e-007 4.20932e-006 4.38029e-007 3.89543e-008 8.11042e-009 50.7458 -13.138 0.476132 37.6113 -39.0866 7.15719 -32.2956 -20.9977 17.1527 0.254212 -14.8974 30.7111 -1.98785e-016 -3.18055e-015 4.77083e-015 1.98785e-016 -2.38542e-015 6.36111e-015 3.97569e-016 -3.18055e-015 7.95139e-015 -1.98785e-016 -3.18055e-015 1.59028e-015 1.98785e-016 -2.38542e-015 9.54166e-015 3.97569e-016 -3.18055e-015 7.95139e-015 5.96354e-016 -3.97569e-015 6.36111e-015 1.98785e-016 -2.38542e-015 9.54166e-015 3.97569e-016 -3.18055e-015 7.95139e-015 5.96354e-016 -3.97569e-015 6.36111e-015 -1.98785e-016 -3.18055e-015 1.59028e-015 1.98785e-016 -2.38542e-015 9.54166e-015 3.97569e-016 -3.18055e-015 7.95139e-015 5.96354e-016 -3.97569e-015 6.36111e-015 1.98785e-016 -2.38542e-015 9.54166e-015 3.97569e-016 -3.18055e-015 7.95139e-015 5.96354e-016 -3.97569e-015 6.36111e-015 3.81163 12.6008 47.0348 -4.67877 -2.15378 21.6691 10.8063 47.0465 -8.00087 -5.64127 8.8561 -50.2968 6.55666 9.26453 -22.8883 -18.8291 50.2891 11.6059 
